# xmcd
# Copyright (c) 1998 CDDB Inc.
#
# Track frame offsets:
#	150
#	16547
#	40687
#	62264
#	86103
#	106905
#	126961
#	144749
#	174251
#	206099
#	227978
#	249730
#	263559
#
# Disc length: 4036 seconds
#
# Revision: 1
# Processed by: cddbd v1.4PL0 Copyright (c) Steve Scherf et al.
# Submitted via: audiograbber 1.70
#
DISCID=a80fc20d
DTITLE=Memphis la Blusera - La Flor Más Bella
DYEAR=1900
DGENRE=
TTITLE0=La flor mas bella
TTITLE1=Moscatto, pizza y faina
TTITLE2=La bifurcada
TTITLE3=Monton de nada
TTITLE4=Hoy es hoy
TTITLE5=La revolución
TTITLE6=Locura
TTITLE7=Tonto rompecabezas
TTITLE8=Se necesita
TTITLE9=Blues de Rosario
TTITLE10=Sopa de letras
TTITLE11=El rock and roll  y yo
TTITLE12=Popurri
EXTD=
EXTT0=
EXTT1=
EXTT2=
EXTT3=
EXTT4=
EXTT5=
EXTT6=
EXTT7=
EXTT8=
EXTT9=
EXTT10=
EXTT11=
EXTT12=
PLAYORDER=
